<svg xmlns="http://www.w3.org/2000/svg" version="1.1" xmlns:xlink="http://www.w3.org/1999/xlink" xmlns:svgjs="http://svgjs.com/svgjs" width="521" height="520">
  <svg width="521" height="520" viewBox="0 0 521 520" fill="none" xmlns="http://www.w3.org/2000/svg">
    <path fill-rule="evenodd" clip-rule="evenodd" d="M47.6607 502C126.995 473.967 197.561 438.125 258.41 398.811C290.924 415.866 326.454 431.391 364.961 444.752C348.616 451.865 340.044 470.372 345.664 487.666C351.638 506.047 371.383 516.096 389.766 510.112L520.381 467.594L454.162 344.348C445.015 327.324 423.795 320.947 406.767 330.104C389.739 339.26 383.35 360.484 392.497 377.508L394.281 380.828C369.126 372.366 345.503 362.954 323.39 352.823C413.46 283.046 474.801 208.057 502.847 148.731C515.431 122.113 523.677 93.763 520.199 68.3841C518.355 54.9241 513 41.1032 502.057 29.9528C491.065 18.7525 477.091 12.9543 462.861 10.9082C436.184 7.07247 404.761 15.7155 371.458 31.1668C342.255 44.7159 308.121 65.1662 268.949 93.2524C230.967 64.6325 196.938 43.9305 166.934 30.3638C132.075 14.6014 99.3977 6.99562 71.1014 11.2124C40.1418 15.826 16.782 34.5116 6.78736 63.1233C-2.22699 88.9288 1.04813 118.517 10.1818 146.457C31.5427 211.8 92.3198 291.638 190.767 358.396C141.706 387.469 86.1192 414.169 24.3389 436C6.11329 442.44 -3.44072 462.435 2.99941 480.661C9.43954 498.887 29.4351 508.441 47.6607 502ZM76.7169 124.706C93.8893 177.237 152.119 253.814 254.961 316.538C351.713 247.242 414.516 171.795 439.562 118.814C448.857 99.1535 451.116 86.3949 451 80.0236C443.71 79.6874 427.913 82.141 400.919 94.6654C372.436 107.88 335.441 130.433 289.415 165.083L267.711 181.423L246.498 164.449C202.771 129.461 166.651 107.059 138.094 94.1465C108.894 80.9432 90.7095 79.0633 81.4189 80.4478C74.7916 81.4354 73.839 83.4378 72.8715 86.2077C70.9236 91.7838 70.0366 104.271 76.7169 124.706Z"></path>
  </svg>
  <style>
    @media (prefers-color-scheme: light) {
      path {
        fill: #4c1d95;
      }
    }
    @media (prefers-color-scheme: dark) {
      path {
        fill: #a5b4fc;
      }
    }
  </style>
</svg>
